<?xml version="1.0" encoding="UTF-8"?>
<svg version="1.1" viewBox="0 0 1600 1328" width="1280" height="1280" xmlns="http://www.w3.org/2000/svg">
<path transform="translate(0)" d="m0 0h1600v1328h-1600v-1328z" fill="#FCFDFD"/>
<path transform="translate(600,101)" d="m0 0c0.638 0.0838 1.28 0.168 1.93 0.254 1.24 0.153 1.24 0.153 2.5 0.309 0.824 0.104 1.65 0.209 2.5 0.316 0.682 0.04 1.36 0.0799 2.07 0.121 0.33-0.33 0.66-0.66 1-1 5.43-0.332 9.83 0.548 15 2v-2h12v3h4c0.33 2.31 0.66 4.62 1 7 0.99 0.33 1.98 0.66 3 1v2h10v2h2v6h-2c0.99 4.62 1.98 9.24 3 14h2c0.33 1.65 0.66 3.3 1 5h2c0.33 0.99 0.66 1.98 1 3l8 1c-0.33 2.97-0.66 5.94-1 9h11c1.35 2.71 1.07 5.01 1 8h-6c0.165 1.26 0.33 2.52 0.5 3.81 0.611 5.4 0.591 10.8 0.5 16.2 1.32 0.33 2.64 0.66 4 1v4h2v4h2v4c2.64-0.33 5.28-0.66 8-1v-2h7v4h4v6h-3c0.66 1.65 1.32 3.3 2 5h9c3.94 8.42 5.16 14.7 5 24h2c1.5 3.37 2 5.2 2 9h2c1.16 3.47 1.07 6.36 1 10h3v6c-0.99 0.33-1.98 0.66-3 1-0.0374 0.557-0.0748 1.11-0.113 1.69-0.482 5.6-1.72 10.1-3.89 15.3 0.99 0.33 1.98 0.66 3 1v6h-2v6h-5c-0.33 3.63-0.66 7.26-1 11-10.2 1.21-10.2 1.21-14 0v2h5c0.25 5.62 0.25 5.62-2 9h-3c-0.33 1.65-0.66 3.3-1 5h-3v6h-2v5h-6v-3c-0.577 0.495-1.15 0.99-1.75 1.5-2.25 1.5-2.25 1.5-6.25 1.5v13c-2.31 0.66-4.62 1.32-7 2 0.327 0.51 0.655 1.02 0.992 1.55 1.36 3.32 1.2 6.13 1.13 9.7-0.018 1.26-0.0361 2.53-0.0547 3.83-0.0348 1.45-0.0348 1.45-0.0703 2.92h4c0.33 3.63 0.66 7.26 1 11h6v2h4v6h-3c0.289 0.641 0.577 1.28 0.875 1.94 2.27 5.28 3.48 9.22 3.12 15.1 0.33 0.99 0.66 1.98 1 3h2c0.228 2.05 0.456 4.1 0.684 6.15 0.135 1.86 0.135 1.86 1.32 2.85 0.0408 2 0.0425 4 0 6h3c0.121 0.855 0.242 1.71 0.367 2.59 0.251 1.66 0.251 1.66 0.508 3.35 0.162 1.1 0.325 2.2 0.492 3.34 0.209 0.898 0.418 1.8 0.633 2.72 0.66 0.33 1.32 0.66 2 1 0.414 2.72 0.414 2.72 0.625 6.06 0.0748 1.1 0.15 2.21 0.227 3.35 0.049 0.855 0.098 1.71 0.148 2.59h3c-0.0116 0.759-0.0232 1.52-0.0352 2.3-0.00902 0.994-0.018 1.99-0.0273 3.01-0.0174 1.48-0.0174 1.48-0.0352 2.99-0.0256 2.8-0.0256 2.8 1.1 5.7-0.0315 1.92-0.0643 3.85-0.16 5.77 0.0644 2.36 0.0644 2.36 1.16 4.91 1.13 3.73 1.25 6.8 1.23 10.7-6.87e-4 1.03-6.87e-4 1.03-0.00139 2.08-3e-3 1.45-0.0108 2.89-0.0233 4.34-0.0183 2.2-0.0205 4.4-0.0203 6.6-0.0208 5.97-0.0514 11.7-1.19 17.6 2.79 1.4 5.54 1.61 8.62 2.06 1.19 0.177 2.38 0.353 3.6 0.535 0.915 0.133 1.83 0.266 2.77 0.402v3h3c0.33-1.98 0.66-3.96 1-6h17v2h16v2c0.874-0.126 0.874-0.126 1.77-0.254 6.88-0.855 13.4-0.515 20.2 0.254v-2h12v2h5v-2h6v2h3v2h17v-2h2v-2h15v2h5v-2h10v-2h12v-2h6v4c0.7-0.0105 1.4-0.0209 2.12-0.0317 3.23-0.0421 6.46-0.0678 9.69-0.0933 1.1-0.0168 2.2-0.0335 3.33-0.0508 7.18-0.0424 13.8 0.613 20.9 2.18 0.33-0.99 0.66-1.98 1-3l11 1c0.33 1.32 0.66 2.64 1 4h6v-2h6v4h7v-2h6c0.33 0.66 0.66 1.32 1 2h9v5c5.94 0.33 11.9 0.66 18 1v4h3v3c4.62 0.33 9.24 0.66 14 1v2c0.619-0.351 1.24-0.701 1.88-1.06 4.53-1.36 8.49-0.566 13.1 0.0625 1.71 0.191 3.42 0.379 5.12 0.562 1.28 0.144 2.56 0.289 3.88 0.438 0.33 1.32 0.66 2.64 1 4 2.97 0.33 5.94 0.66 9 1v4h6c0.33 1.98 0.66 3.96 1 6 1.32 0.33 2.64 0.66 4 1v2c0.99-0.165 1.98-0.33 3-0.5 10.2-1.41 10.2-1.41 14.5 0.75 1.5 1.75 1.5 1.75 1.5 5.75h6v3h3v-2h8v2h5v3h5v3c2.31 0.33 4.62 0.66 7 1v4h12v2c0.831-0.0116 1.66-0.0232 2.52-0.0352 1.63-0.0135 1.63-0.0135 3.29-0.0273 1.08-0.0116 2.16-0.0232 3.27-0.0352 2.92 0.0977 2.92 0.0977 5.92 1.1 0.73 1.93 0.73 1.93 1.19 4.31l0.48 2.36c0.332 2.32 0.332 2.32 0.332 6.32 0.568-0.0348 1.14-0.0696 1.72-0.105 5.63-0.198 9.26 0.544 14.3 3.11 0.66 0.33 1.32 0.66 2 1v2h4v3h6v2h6v3h7c0.33 1.65 0.66 3.3 1 5h2v5c1.3-0.0928 1.3-0.0928 2.62-0.188 3.82 0.212 6.09 1.31 9.38 3.19v2c0.626 0.0606 1.25 0.121 1.9 0.184 1.23 0.126 1.23 0.126 2.48 0.254 0.812 0.0812 1.62 0.162 2.46 0.246 2.16 0.316 2.16 0.316 4.16 1.32v6c-0.959 0.186-0.959 0.186-1.94 0.375-0.681 0.206-1.36 0.412-2.06 0.625-0.33 0.66-0.66 1.32-1 2h11v3c1.65 0.33 3.3 0.66 5 1v2c2.64 0.33 5.28 0.66 8 1 0.33 1.32 0.66 2.64 1 4h5v4c1.42-0.0309 1.42-0.0309 2.88-0.0625 3.12 0.0625 3.12 0.0625 5.12 1.06v2c0.949 0.227 1.9 0.454 2.88 0.688 3.12 1.31 3.12 1.31 4.5 3.75 0.625 2.56 0.625 2.56 0.625 5.56l1.83 0.148c0.799 0.0748 1.6 0.15 2.42 0.227l2.39 0.211c2.36 0.414 2.36 0.414 6.36 2.41v9c1.05 0.29 1.05 0.29 2.12 0.586 0.91 0.26 1.82 0.521 2.76 0.789 0.905 0.255 1.81 0.51 2.74 0.773 2.38 0.852 2.38 0.852 4.38 2.85 1.32 0.33 2.64 0.66 4 1 0.33 2.97 0.66 5.94 1 9h4c0.0619 0.928 0.0619 0.928 0.125 1.88 0.289 0.701 0.578 1.4 0.875 2.12 1.99 0.704 3.99 1.37 6 2 0.33 0.99 0.66 1.98 1 3 1.89 0.681 1.89 0.681 4 1 0.99 0.33 1.98 0.66 3 1v3c1.65 0.33 3.3 0.66 5 1 0.33 3.3 0.66 6.6 1 10 1.65 0.33 3.3 0.66 5 1v3c1.14-0.0928 1.14-0.0928 2.31-0.188 2.69 0.188 2.69 0.188 4.44 1.19 1.98 3.17 1.95 6.3 2.25 10h5c0.33 1.65 0.66 3.3 1 5h2v2c1.32 0.33 2.64 0.66 4 1v2h4v4h5v2h2v6h-3c0.33 0.66 0.66 1.32 1 2h6v3c2.97 0.33 5.94 0.66 9 1 0.33 2.64 0.66 5.28 1 8h3v6h5c0.027 1.46 0.0464 2.92 0.0625 4.38 0.0116 0.812 0.0232 1.62 0.0352 2.46-0.0977 2.16-0.0977 2.16-1.1 4.16 2.97 0.33 5.94 0.66 9 1v2h3v13h5v11c0.99 0.33 1.98 0.66 3 1v3c1.42-0.0309 1.42-0.0309 2.88-0.0625 3.12 0.0625 3.12 0.0625 5.12 1.06v5h4c0.33 1.98 0.66 3.96 1 6 0.99 0.33 1.98 0.66 3 1 0.33 3.3 0.66 6.6 1 10h-4c0.951 2.15 1.91 4.29 2.88 6.44l1.62 3.62c1.19 3.03 1.19 3.03 3.51 3.94v4h6c-0.0116 0.626-0.0232 1.25-0.0352 1.9l-0.0273 2.48c-0.0116 0.812-0.0232 1.62-0.0352 2.46-0.047 2.21-0.047 2.21 1.1 4.16 1.32 0.33 2.64 0.66 4 1v13h3v2h2v3h3v6h2c0.33 0.99 0.66 1.98 1 3 1.65 0.33 3.3 0.66 5 1v5h5v6c0.99 0.33 1.98 0.66 3 1-0.0348 0.762-0.0696 1.52-0.105 2.31-0.237 9.04 0.969 16.1 6.11 23.7 0.33-0.33 0.66-0.66 1-1 2-0.0408 4-0.0425 6 0 0.027 1.46 0.0464 2.92 0.0625 4.38 0.0116 0.812 0.0232 1.62 0.0352 2.46-0.0977 2.16-0.0977 2.16-1.1 4.16h4v10h-5v6h2v2h3c0.33 8.25 0.66 16.5 1 25h4v14h2c2.47 5.98 3.79 11.6 4.69 18 0.13 0.87 0.259 1.74 0.393 2.64 0.314 2.12 0.618 4.24 0.92 6.36h3v16h2c0.083 1.01 0.083 1.01 0.168 2.05 0.253 3.07 0.511 6.13 0.77 9.2 0.087 1.06 0.174 2.13 0.264 3.22 0.087 1.02 0.174 2.05 0.264 3.11 0.0786 0.943 0.157 1.89 0.238 2.86 0.228 2.49 0.228 2.49 0.809 4.54 1.17 4.83 0.932 10 1.11 15 0.0773 1.74 0.0773 1.74 0.156 3.52 0.3 7.93-0.00217 15.7-0.781 23.5h2c1.16 20.7 1.11 41.3 1 62h-3c0.0116 1.19 0.0232 2.38 0.0352 3.61 0.00938 1.57 0.0185 3.13 0.0273 4.7 0.00838 0.786 0.0168 1.57 0.0254 2.38 0.00322 0.757 0.00645 1.51 0.00977 2.29 0.00524 0.696 0.0105 1.39 0.0159 2.11-0.114 1.9-0.114 1.9-1.11 4.9-0.0395 2.33-0.044 4.67 0 7-0.639 0.103-1.28 0.206-1.94 0.312-0.681 0.227-1.36 0.454-2.06 0.688-0.33 0.99-0.66 1.98-1 3h-2c-0.33 1.65-0.66 3.3-1 5h-2l-0.375 3.94c-0.211 2.21-0.211 2.21-0.625 4.06-2.57 1.28-4.04 0.936-6.88 0.625-0.864-0.0902-1.73-0.18-2.62-0.273-2.23-0.313-4.34-0.756-6.51-1.35v3c-1.61-0.0602-3.21-0.149-4.81-0.25-1.34-0.0696-1.34-0.0696-2.71-0.141-2.48-0.609-2.48-0.609-4.3-2.53-1.18-2.08-1.18-2.08-1.18-4.08h-15c-0.33-0.66-0.66-1.32-1-2-2.02-0.652-2.02-0.652-4-1v4h-6v-5c-1.65 0.33-3.3 0.66-5 1-0.33 1.65-0.66 3.3-1 5h4v6h-6c-0.33-0.66-0.66-1.32-1-2h-4v6h-6v-2c-7.43 1.49-7.43 1.49-15 3v2c-9.34 2.53-18.5 2.78-28 1v-2c-0.592-0.00258-1.18-0.00516-1.79-0.00781-6.24-0.305-6.24-0.305-8.88-2.18-2.96-3.34-4.01-6.42-4.32-10.8h-2c-0.33-0.99-0.66-1.98-1-3-1.17-0.0909-1.17-0.0909-2.37-0.184-1.52-0.126-1.52-0.126-3.07-0.254-1.01-0.0812-2.02-0.162-3.06-0.246-2.5-0.316-2.5-0.316-3.5-1.32-0.0721-1.69-0.0839-3.38-0.0625-5.06 0.0135-1.38 0.0135-1.38 0.0273-2.79 0.0116-0.71 0.0232-1.42 0.0352-2.15h-4v-7l-1.69-0.375c-2.31-0.625-2.31-0.625-4.44-1.66-3.75-1.26-7.28-1.18-11.2-1.09-1.11 0.0135-1.11 0.0135-2.24 0.0273-1.81 0.0234-3.63 0.0593-5.44 0.0977v-3h-4v3c-5.81 1.51-11 2.22-17 2-0.99 2.64-1.98 5.28-3 8h-4v6h-11v-6h-4v11h-9v3c-6.6 0.66-13.2 1.32-20 2v8h-2v2c-5.94 0.33-11.9 0.66-18 1v2h-6v-2c-2.64 0.66-5.28 1.32-8 2 0.66 0.33 1.32 0.66 2 1v8h-6v-2h-6v-2h-5v-2c-0.66 0.33-1.32 0.66-2 1-0.692 2.81-0.692 2.81-1.12 6.06-0.168 1.1-0.335 2.21-0.508 3.35-0.121 0.855-0.242 1.71-0.367 2.59-2.83 0.809-5.31 1.11-8.25 1.06-1.24-0.0206-2.47-0.0412-3.75-0.0625v-6c-3.3 0.33-6.6 0.66-10 1-0.33 4.29-0.66 8.58-1 13h-13v-4h-3v4c-5.61-0.33-11.2-0.66-17-1v-2h-24v3c-3.47 1.16-6.36 1.07-10 1v-4h-12v2h-8c-0.33-2.31-0.66-4.62-1-7h-3v-10h-7v-2h-6v-3h-3v-5h-6v-6c1.98-0.33 3.96-0.66 6-1-0.33-1.32-0.66-2.64-1-4-1.65-0.33-3.3-0.66-5-1v-3c-0.971 0.164-1.94 0.327-2.94 0.496-4.34 0.62-8.62 0.615-13 0.566-0.779-0.00451-1.56-0.00902-2.36-0.0137-1.9-0.0117-3.8-0.0296-5.7-0.0488v2h4v6h-7v3h4v6c-3.47 1.16-6.36 1.07-10 1v-3h-3c-0.33 1.32-0.66 2.64-1 4h-5v3h-5v2h-10c-0.33-1.65-0.66-3.3-1-5h-4c-0.33 2.97-0.66 5.94-1 9h-12v-4h-5v-6h-5v6h-9v-5h-6v5h-26c-0.33 3.3-0.66 6.6-1 10h-13v-4h-3v4h-4v5h-6c-0.33-0.99-0.66-1.98-1-3-2.31 0.33-4.62 0.66-7 1v2h-6v4h-7v-3c-7.59-0.33-15.2-0.66-23-1v2c-5.38 1.19-10.5 2.29-16 2v-2h-5v-2c-1.1 0.0116-2.19 0.0232-3.32 0.0352-1.45 0.00938-2.91 0.0185-4.36 0.0273-0.721 0.00838-1.44 0.0168-2.19 0.0254-3.84 0.0175-7.39-0.153-11.1-1.09v-4h-2c-0.126-5.55-0.126-5.55 0.625-8.25 0.124-0.578 0.247-1.16 0.375-1.75-1.84-2.29-1.84-2.29-4.62-2.12-0.784 0.0412-1.57 0.0825-2.38 0.125v2h-6v-6h-5v-2c-5.94-0.33-11.9-0.66-18-1-0.33 0.99-0.66 1.98-1 3-2.97 0.33-5.94 0.66-9 1v5h-6c-0.33 1.65-0.66 3.3-1 5h-18c-0.33 1.65-0.66 3.3-1 5-0.984 0.121-0.984 0.121-1.99 0.244-2.96 0.368-5.93 0.75-8.89 1.13-1.03 0.126-2.07 0.253-3.13 0.383-0.986 0.129-1.97 0.258-2.99 0.391-0.911 0.115-1.82 0.23-2.76 0.349-2.44 0.334-2.44 0.334-4.25 2.5-2.71 0.248-5.32 0.374-8.03 0.414-0.816 0.0194-1.63 0.0388-2.47 0.0588-2.67 0.0605-5.33 0.107-8 0.152-1.82 0.0378-3.64 0.0761-5.46 0.115-14 0.285-28 0.387-42 0.26v3h-7v-4h-4v-5h-3v5c-2 0.0425-4 0.0408-6 0-1-1-1-1-1.06-4.06 0.0309-1.45 0.0309-1.45 0.0625-2.94h-4v2h-11v-6h8v-4h-4v2h-6v-2h-2v4h-6v-9h-10v-4h-14v-3h-2v-9h-5c-0.66-1.32-1.32-2.64-2-4h-4v-5c-0.99-0.33-1.98-0.66-3-1-0.33-1.32-0.66-2.64-1-4-2.97-0.33-5.94-0.66-9-1v-6h4c-0.144-0.603-0.289-1.21-0.438-1.83-0.186-0.799-0.371-1.6-0.562-2.42l-0.562-2.39c-0.438-2.36-0.438-2.36-0.438-6.36h-3c-0.121-0.566-0.242-1.13-0.367-1.71-0.168-0.733-0.335-1.47-0.508-2.22-0.162-0.731-0.325-1.46-0.492-2.21-0.462-2.05-0.462-2.05-2.63-2.85-1.87-0.228-3.75-0.41-5.62-0.562-1.5-0.126-1.5-0.126-3.04-0.254-1.16-0.0909-1.16-0.0909-2.34-0.184 0.0174-1.44 0.0174-1.44 0.0352-2.9 0.0649-8.12-0.109-16.2-0.767-24.2-0.328-4.5-0.0421-8.44 0.732-12.8-1.98-0.33-3.96-0.66-6-1v-13h-3c0.164 0.807 0.327 1.61 0.496 2.45 0.593 4.18 0.613 8.21 0.566 12.4-0.00451 0.784-0.00902 1.57-0.0137 2.38-0.0117 1.92-0.0296 3.83-0.0488 5.75h-6c-0.33-0.99-0.66-1.98-1-3-1.32-0.33-2.64-0.66-4-1v-16h-5v-7h2c0.33-1.65 0.66-3.3 1-5h6v2h2v3c0.66-0.33 1.32-0.66 2-1-0.66-1.65-1.32-3.3-2-5h-6v-5h-5v-6h4v-4h3v-2h-2c-0.144-1.13-0.289-2.27-0.438-3.44-0.174-3.37-0.174-3.37-1.56-4.56-0.0408-2-0.0425-4 0-6h2v-5h-5v-19c-0.99-0.33-1.98-0.66-3-1v-6h2v-3h-3c0.0232 1.02 0.0464 2.05 0.0703 3.11 0.0188 1.36 0.037 2.72 0.0547 4.08 0.0168 0.674 0.0335 1.35 0.0508 2.04 0.0396 4.06-0.376 7.12-2.18 10.8h-6c0.0303-0.789 0.0606-1.58 0.0918-2.39 0.139-3.68 0.275-7.36 0.408-11 0.024-0.661 0.048-1.32 0.0728-2 0.327-9.13 0.515-18.2 0.365-27.4 0.0565-2.88 0.386-5.4 1.06-8.19h3v-9h6c0.33-3.96 0.66-7.92 1-12h2c0.33-1.32 0.66-2.64 1-4h6v-3h2c-0.0116-0.71-0.0232-1.42-0.0352-2.15-0.00902-0.919-0.018-1.84-0.0273-2.79-0.0116-0.917-0.0232-1.83-0.0352-2.78 0.0977-2.29 0.0977-2.29 1.1-3.29-0.99-0.33-1.98-0.66-3-1v-10h5v-4c1.32-0.33 2.64-0.66 4-1-0.33-0.66-0.66-1.32-1-2-0.66 0.33-1.32 0.66-2 1-3.06 0.125-3.06 0.125-6 0-1.93-1.93-1.13-4.78-1.14-7.34 0.00387-0.837 0.00773-1.67 0.0117-2.54-0.00387-0.829-0.00773-1.66-0.0117-2.51 0.00129-0.798 0.00258-1.6 0.00391-2.42 0.00113-0.732 0.00226-1.46 0.00342-2.22 0.129-1.98 0.129-1.98 1.13-4.98h9c0.33-1.32 0.66-2.64 1-4h2v-2h-3c-0.125-5.75-0.125-5.75 1-8h5c-0.0722-0.548-0.144-1.1-0.219-1.66-1.26-10.8-1.29-21.6 0.219-32.3 0.566-0.193 1.13-0.387 1.71-0.586l2.22-0.789c1.1-0.383 1.1-0.383 2.21-0.773 2.03-0.704 2.03-0.704 2.85-2.85h2v-4h2v-7c1.65-0.33 3.3-0.66 5-1-0.33-1.32-0.66-2.64-1-4h-6v-6h5v-4c1.32-0.33 2.64-0.66 4-1 0.33-1.32 0.66-2.64 1-4h-3v-6c0.969-0.248 1.94-0.495 2.94-0.75 3.32-1.92 3.32-1.92 3.68-5.12 0.234-3.05 0.369-6.07 0.379-9.13h7c0.124-0.804 0.247-1.61 0.375-2.44 0.741-4.22 1.67-8.39 2.62-12.6h3v-2h6v-4h-3v3h-7v-6h6v-20c2.97 0.33 5.94 0.66 9 1 0.66-1.65 1.32-3.3 2-5h2c0.164-0.957 0.164-0.957 0.332-1.93 0.159-0.826 0.317-1.65 0.48-2.5 0.226-1.24 0.226-1.24 0.457-2.5 0.241-0.682 0.482-1.36 0.73-2.07 0.99-0.33 1.98-0.66 3-1-0.0928-1.89-0.0928-1.89-0.188-3.81-0.0208-3.93-0.0208-3.93 1.69-6.06 0.495-0.371 0.99-0.742 1.5-1.12v-2h-2c0.33-3.63 0.66-7.26 1-11h10v-2h2c-0.33-0.99-0.66-1.98-1-3h-6c0.33-2.97 0.66-5.94 1-9 2-0.0425 4-0.0408 6 0 0.33 0.33 0.66 0.66 1 1 0.66-3.63 1.32-7.26 2-11h5c-0.143-1.34-0.143-1.34-0.289-2.71-0.689-7.51-0.743-14 1.29-21.3 0.99-0.33 1.98-0.66 3-1v-6c-1.65-0.33-3.3-0.66-5-1v-8c2-0.0425 4-0.0408 6 0 1 1 1 1 1.1 2.85-0.0326 2.05-0.0651 4.1-0.0977 6.15h3c-0.0619-1.64-0.0619-1.64-0.125-3.31 0.125-3.69 0.125-3.69 2.12-6.69h2c0.33-1.98 0.66-3.96 1-6-2.64-0.33-5.28-0.66-8-1v-10h10v-2c0.66-0.33 1.32-0.66 2-1 1.05-2.31 2.06-4.64 3-7h4v-4h-10v-8h10v-3h-2.34-10.7c-0.33 0.33-0.66 0.66-1 1-1.67 0.0406-3.33 0.0427-5 0v8h-6v-8h-13v2h4v6h-4c-0.33 0.99-0.66 1.98-1 3h-5v3c-3.96 0.33-7.92 0.66-12 1v3h-2v6c-5.61 0.33-11.2 0.66-17 1-0.33-1.65-0.66-3.3-1-5h-2c0.0116 0.699 0.0232 1.4 0.0352 2.12 0.00902 0.91 0.018 1.82 0.0273 2.76 0.0116 0.905 0.0232 1.81 0.0352 2.74-0.0977 2.38-0.0977 2.38-1.1 4.38h-4c-0.66 1.32-1.32 2.64-2 4h-3v2c-2.75 0.917-4.36 1.11-7.19 1.06-1.26-0.0206-2.52-0.0412-3.81-0.0625-0.33-0.99-0.66-1.98-1-3h-4v2c-2.64 0.33-5.28 0.66-8 1v3h5v6h-2v2c-4.29 0.33-8.58 0.66-13 1v4h-4v3h4v6l-11 1v5h-5v4h-6v4c-2.68 0.892-4.25 1.14-7 1.12-0.681 0.00258-1.36 0.00516-2.06 0.00781-1.94-0.133-1.94-0.133-4.94-1.13-1.22 2.07-1.22 2.07-1 5 0 3 0 3-1 5h-2c-0.66 1.98-1.32 3.96-2 6h-6v-3h-3c-0.33 1.32-0.66 2.64-1 4h-7v-3h-2v3h-4v3h5v6h-8c-0.33-0.66-0.66-1.32-1-2-0.33 0.66-0.66 1.32-1 2h-4v2c-3 2-3 2-7 2v4h5v-4h6v6h-2v5h-10c-0.33-0.99-0.66-1.98-1-3h-4v2c-1.65 0.33-3.3 0.66-5 1v2h-2v2h-2v12h-13v2h-2c-0.33 2.31-0.66 4.62-1 7h-4v15h-11c0.99 0.33 1.98 0.66 3 1 1.4 2.8 1.25 4.9 1 8-1.25 1.88-1.25 1.88-3 3h-4c-0.0142 0.759-0.0284 1.52-0.043 2.3-0.393 8.18-0.393 8.18-3.27 10.8-2.2 0.717-4.44 1.31-6.69 1.88-0.66 3.3-1.32 6.6-2 10h-3v2c-3.44 2.29-4.99 2.18-9 2v-4h-2v3h-5v3h5v8l-5 1v3h-6v-3h-3c-0.66 1.98-1.32 3.96-2 6 0.804 0.124 1.61 0.248 2.44 0.375 0.846 0.206 1.69 0.412 2.56 0.625 1.35 2.71 1.07 5.01 1 8h-6c0.33 0.66 0.66 1.32 1 2 0.231 5.54 0.231 5.54-1 8-7.75 0.125-7.75 0.125-10-1-0.33 1.32-0.66 2.64-1 4h-3v2h-3v4h3v6h-5v3l-1.94 0.375c-0.681 0.206-1.36 0.412-2.06 0.625-0.33 0.66-0.66 1.32-1 2h-4l0.0625 3.94c0.0215 1.35 0.00898 2.71-0.0625 4.06-0.33 0.33-0.66 0.66-1 1l5 1v11h-6v-3c-4.5 1.2-6.36 2.22-9 6h-3v2h-2l0.125 3.19c-0.116 3.55-0.597 5.66-2.12 8.81h-2c-0.0606 0.603-0.121 1.21-0.184 1.83l-0.254 2.42c-0.0812 0.789-0.162 1.58-0.246 2.39-0.293 2.18-0.737 4.24-1.32 6.36h6v6c-4.29 0.33-8.58 0.66-13 1v2c0.66 0.33 1.32 0.66 2 1v6h-5v6l-4 1v6h2v6h-4v2h-3l0.0352 2.99 0.0273 3.88 0.0352 3.87c-0.0977 3.26-0.0977 3.26-1.1 5.26h-2c-0.66 2.31-1.32 4.62-2 7h5c0.0269 1.98 0.0463 3.96 0.0625 5.94l0.0352 3.34c-0.0977 2.72-0.0977 2.72-1.1 3.72-2 0.0408-4 0.0425-6 0 0.33-3.3 0.66-6.6 1-10h-3l0.0703 1.98c0.106 5.11-0.051 9.23-2.07 14h-4l0.125 3.69c0.0167 5.27-0.806 10.3-1.69 15.5-0.514 2.84-0.514 2.84-0.438 5.82v2h2c0.0269 1.98 0.0463 3.96 0.0625 5.94 0.0116 1.1 0.0232 2.2 0.0352 3.34-0.0977 2.72-0.0977 2.72-1.1 3.72-0.0718 1.52-0.0839 3.04-0.0625 4.56 0.00902 0.826 0.018 1.65 0.0273 2.5 0.0116 0.638 0.0232 1.28 0.0352 1.93h-2c-0.495 2.47-0.495 2.47-1 5h-10v4c0.99 0.33 1.98 0.66 3 1v2h6v6h-6v-2h-6c-0.33 2.97-0.66 5.94-1 9h-2c-0.194 1.48-0.38 2.96-0.562 4.44l-0.316 2.5c-0.04 0.682-0.0799 1.36-0.121 2.07 0.33 0.33 0.66 0.66 1 1 0.0408 2 0.0425 4 0 6h-2c-1.88 4.95-2.58 9.65-3.12 14.9-0.0864 0.784-0.173 1.57-0.262 2.38-0.21 1.92-0.413 3.83-0.613 5.75h-2v10h2v8h-2l0.0625 2.38c-0.0625 2.62-0.0625 2.62-1.06 4.62l0.0625 3.19c-0.0656 4-0.821 7.02-2.06 10.8l-1 3.38c-1 2.62-1 2.62-3 3.62-0.504 2.52-0.886 4.95-1.19 7.5l-0.287 2.13c-0.225 1.78-0.381 3.58-0.525 5.37 0.33 0.33 0.66 0.66 1 1 0.0408 2 0.0425 4 0 6-5.59 3.23-11.6 3.14-17.9 3.06-0.688-0.00451-1.38-0.00902-2.09-0.0137-1.68-0.0117-3.36-0.0296-5.04-0.0488v5c-4.29 0.33-8.58 0.66-13 1-5-10.8-5-10.8-5-13-0.66 0.33-1.32 0.66-2 1v5h2v6h-6v-5h-2v-2h-5c-0.33-2.64-0.66-5.28-1-8h-2v3h-7c-0.495-1.49-0.495-1.49-1-3h-3v-6h6v-6h7v-2h-4c-0.169-2.08-0.335-4.17-0.5-6.25-0.0928-1.16-0.186-2.32-0.281-3.52-0.163-2.41-0.219-4.82-0.219-7.23h-6v-6h2c-0.00524-0.61-0.0105-1.22-0.0159-1.85-0.0209-2.78-0.0338-5.56-0.0466-8.34-0.00838-0.96-0.0168-1.92-0.0254-2.91l-0.00977-2.82c-0.00524-0.854-0.0105-1.71-0.0159-2.59 0.114-2.5 0.114-2.5 0.682-5.13 0.653-2.51 0.653-2.51-0.569-5.37-0.0829-1.99-0.107-3.99-0.0977-5.98 0.00322-1.16 0.00645-2.33 0.00977-3.53 0.00838-1.21 0.0168-2.43 0.0254-3.68l0.0137-3.72c0.0118-3.03 0.0283-6.06 0.0488-9.1h-4v-5h-3v-6h7v-2h-4v-7h3c-0.00222-0.665-0.00444-1.33-0.00673-2.01-0.0222-6.96-0.0373-13.9-0.0482-20.9-0.00501-2.59-0.0118-5.18-0.0205-7.78-0.0122-3.74-0.0178-7.48-0.0222-11.2-0.00516-1.15-0.0103-2.29-0.0156-3.47-4.76e-4 -6.93 0.351-13.7 1.11-20.6h-2v-2h-2c-0.125-6.62-0.125-6.62 1-10h6c0.186 0.959 0.186 0.959 0.375 1.94l0.625 2.06c0.66 0.33 1.32 0.66 2 1v9h2v7c0.66-2.97 1.32-5.94 2-9 1.98-0.33 3.96-0.66 6-1v-11h-6v-17h5v-19h5v-2h-5v-6h5v-3h6v-3h2v-2h-3v-9h-5v-6h6v4l4-2-0.0625-2.88c0.0625-3.12 0.0625-3.12 1.06-5.12 0.949-0.248 1.9-0.495 2.88-0.75 3.4-0.995 3.4-0.995 5-4.38l1.12-2.88h-7v-6h7v-16h8c0.66-3.3 1.32-6.6 2-10l4-1c0.381-1.99 0.713-3.99 1-6-0.33-0.33-0.66-0.66-1-1 0.0648-1.92 0.202-3.84 0.375-5.75l0.273-3.17c0.313-2.74 0.763-5.38 1.35-8.08h8v-2.38-10.6c2.97-0.66 5.94-1.32 9-2l0.551-2.08c0.251-0.901 0.503-1.8 0.762-2.73 0.244-0.893 0.487-1.79 0.738-2.71 0.984-2.57 1.98-3.64 3.95-5.48 0.722-2.61 0.722-2.61 1-5 0.99-0.33 1.98-0.66 3-1 0.733-2.02 0.733-2.02 1-4l-4-1v-6h8c0.495-2.47 0.495-2.47 1-5 0.99-0.33 1.98-0.66 3-1 0.33-0.66 0.66-1.32 1-2h2c0.33-0.99 0.66-1.98 1-3h3c0.66-2.97 1.32-5.94 2-9h2c0.33-1.98 0.66-3.96 1-6l4-1v-3h2c0.99-2.47 0.99-2.47 2-5h2v-4l5-2c0.33-3.96 0.66-7.92 1-12h6v5h3v-17h6c0.33-1.65 0.66-3.3 1-5h3v-3h2v-2h3v-4h-4v-6h11c1.68-1.06 1.68-1.06 3.12-2.5 2.88-2.5 2.88-2.5 4.88-2.5v-2c-0.99-0.33-1.98-0.66-3-1v-6h6v6h6c0.66-3.63 1.32-7.26 2-11 1.18-0.165 2.35-0.33 3.56-0.5 5.41-1.33 8.47-4.94 11.4-9.5 0.709-2.15 0.709-2.15 1-4h3v-2c0.784-0.206 1.57-0.412 2.38-0.625 2.91-1.17 2.91-1.17 3.88-4.38l0.75-3c0.33-0.66 0.66-1.32 1-2h2c0.33-1.32 0.66-2.64 1-4h3c0.33-1.32 0.66-2.64 1-4h-4v-6h6v2h2v-2h2v-2h2v-2c4.62-2.22 7.77-3.38 13-3 0.33-0.99 0.66-1.98 1-3h-4v-6h8c-0.33-3.3-0.66-6.6-1-10h6v2h3c0.33 0.99 0.66 1.98 1 3 1.65-0.33 3.3-0.66 5-1v-3c0.99-0.33 1.98-0.66 3-1 1.72-3.5 1.72-3.5 3-7h2v-2h2v-5h7v-2h3v-2c1.87-0.509 3.75-1.01 5.62-1.5 1.57-0.418 1.57-0.418 3.16-0.844 3.17-0.647 5.99-0.772 9.21-0.656v-2h-2v-7c1.32-0.33 2.64-0.66 4-1 0.33-2.97 0.66-5.94 1-9h6v6h4l-0.0625-2.44c0.0625-2.56 0.0625-2.56 1.06-3.56 2-0.0408 4-0.0425 6 0 0.33 1.32 0.66 2.64 1 4h2v-3c1.65-0.33 3.3-0.66 5-1v-4c2.97-0.33 5.94-0.66 9-1 0.33-1.65 0.66-3.3 1-5h4v-2h3v-2c2.91-1.26 4.8-2 8-2 0.33-0.99 0.66-1.98 1-3 1.18-0.0825 2.35-0.165 3.56-0.25 4.6-0.547 7.53-2.33 11.4-4.75h2c0.0619-0.784 0.124-1.57 0.188-2.38 0.268-0.866 0.536-1.73 0.812-2.62 2.5-1.19 2.5-1.19 5-2 0.33-0.66 0.66-1.32 1-2 2.58-0.852 2.58-0.852 5.81-1.62 1.06-0.26 2.12-0.521 3.21-0.789 2.98-0.586 2.98-0.586 6.98-0.586v-2h7c0.33-0.66 0.66-1.32 1-2h4v-4c3.63-0.33 7.26-0.66 11-1 0.33-1.65 0.66-3.3 1-5 3.3-0.66 6.6-1.32 10-2v-2h10v-2h5v-2c6.82-3.41 16.6-2.1 24-2v-4h6c0.33-1.65 0.66-3.3 1-5 1.28-0.0825 2.56-0.165 3.88-0.25 2.17-0.0537 2.17-0.0537 4.12-0.75 1.3-1.97 1.3-1.97 2-4 1.77-0.0541 3.54-0.0928 5.31-0.125 0.986-0.0232 1.97-0.0464 2.99-0.0703 2.7 0.195 2.7 0.195 5.7 2.2v-2c2.21-0.339 4.42-0.671 6.62-1 1.23-0.186 2.46-0.371 3.73-0.562 3.27-0.392 6.37-0.518 9.65-0.438v2h3v2h2v-2c3.3-0.66 6.6-1.32 10-2 0.66-2.64 1.32-5.28 2-8-1.32-0.33-2.64-0.66-4-1v-5h-2v-7h4v-2c-1.65-0.33-3.3-0.66-5-1v-17c-1.32-0.33-2.64-0.66-4-1-0.66-3.3-1.32-6.6-2-10-0.33 0.33-0.66 0.66-1 1-3.02-0.177-6-0.619-9-1v-9c-0.66-0.33-1.32-0.66-2-1v-11h-2v-6h6c-0.33-1.32-0.66-2.64-1-4h-5c-1.35-2.71-1.07-5.01-1-8 1.98-0.33 3.96-0.66 6-1-0.0722-0.748-0.144-1.5-0.219-2.27-0.0928-0.985-0.186-1.97-0.281-2.98-0.0928-0.975-0.186-1.95-0.281-2.95-0.177-2.26-0.219-4.53-0.219-6.8h-14v-7h9c0.33-1.32 0.66-2.64 1-4 1.32-0.33 2.64-0.66 4-1 0.33-6.6 0.66-13.2 1-20-3.25 1.72-3.25 1.72-4 5-2.97 0.33-5.94 0.66-9 1v5h-14v-3c-1.98-0.33-3.96-0.66-6-1 0.33 0.66 0.66 1.32 1 2 0.04 2 0.0435 4 0 6-1.89 0.507-3.79 1.01-5.69 1.5-1.06 0.278-2.11 0.557-3.2 0.844-2.82 0.595-5.24 0.784-8.11 0.656-0.33 0.99-0.66 1.98-1 3-2.96 1.48-5.74 1.06-9 1-0.33 0.66-0.66 1.32-1 2h-6v-2h-2v5h-7v2c-9.41 3.44-9.41 3.44-14 3v4h-25v6h-6v-6c-2.31-0.33-4.62-0.66-7-1v6h-8v-6h-2.88-5.12c-0.33 0.33-0.66 0.66-1 1-5.53 0.235-5.53 0.235-8-1v-3c-0.619-0.248-1.24-0.495-1.88-0.75-2.12-1.25-2.12-1.25-2.94-3.31-0.392-0.639-0.784-1.28-1.19-1.94-3.56-0.819-3.56-0.819-7-1v-5l-2.05-0.402-2.7-0.535c-1.32-0.261-1.32-0.261-2.67-0.527-2.21-0.459-4.39-0.969-6.58-1.54v-5c-1.65-0.33-3.3-0.66-5-1v-9h2v-3h4v-4h-3v-2c-4.18-1.59-7.53-2.21-12-2v-6h2v-6c0.66-0.33 1.32-0.66 2-1v-3h-5v5h-11v-6h4v-2h6c0.33-1.65 0.66-3.3 1-5h-5c-1.35-2.71-1.07-5.01-1-8h5v-2c-1.65-0.33-3.3-0.66-5-1v-4h-11v-6c1.65-0.33 3.3-0.66 5-1-0.33-0.99-0.66-1.98-1-3-3.3-0.33-6.6-0.66-10-1-1.11-4.43-1.22-8.45-1-13 0.66-0.99 1.32-1.98 2-3-0.33-0.99-0.66-1.98-1-3-0.0395-2.33-0.044-4.67 0-7h4v-2h6v6h-2c0.33 2.64 0.66 5.28 1 8h2c-0.0116-0.82-0.0232-1.64-0.0352-2.48-0.0135-1.62-0.0135-1.62-0.0273-3.27-0.0116-1.07-0.0232-2.13-0.0352-3.23 0.0826-2.55 0.351-4.59 1.1-7.02h-6v-7h3v-5h2c0.33-2.31 0.66-4.62 1-7 0.619-0.0825 1.24-0.165 1.88-0.25 2.31-0.563 2.31-0.563 3.38-2.81 0.371-0.959 0.371-0.959 0.75-1.94h10v-2h4v-4h3v-2c2.08-0.674 4.16-1.34 6.25-2 1.16-0.371 2.32-0.742 3.52-1.12 3.23-0.875 3.23-0.875 7.23-0.875v-11h6v5h8c0.66-1.32 1.32-2.64 2-4h9v-2h4v-2c4.95-0.99 4.95-0.99 10-2 0.811-7.71 1.12-15.3 1-23h-5v-6h5v-6h5c0.0269-1.96 0.0464-3.92 0.0625-5.88 0.0174-1.64 0.0174-1.64 0.0352-3.3 0.0998-2.77 0.0998-2.77-1.1-4.82 0.0874-1.88 0.242-3.75 0.438-5.62 0.102-1 0.204-2.01 0.309-3.04 0.0838-0.771 0.168-1.54 0.254-2.34h5c-0.33-2.97-0.66-5.94-1-9h-4v-6h6v4h3c0.34-0.866 0.34-0.866 0.688-1.75 1.67-2.87 3.58-4.39 6.31-6.25h3v-5c0.619-0.0619 1.24-0.124 1.88-0.188 0.701-0.268 1.4-0.536 2.12-0.812 0.34-1.21 0.34-1.21 0.688-2.44 1.31-2.56 1.31-2.56 3.43-3.34 2.29-0.493 4.56-0.907 6.88-1.23 0.33-2.64 0.66-5.28 1-8h9v-3h2v-4h2c0.66-2.97 1.32-5.94 2-9 1.26-0.103 2.52-0.206 3.81-0.312 3.5-0.418 4.85-1 7.19-3.69h4v-12h6c0.33 1.32 0.66 2.64 1 4 0.66-0.33 1.32-0.66 2-1-0.0116-0.626-0.0232-1.25-0.0352-1.9-0.0135-1.23-0.0135-1.23-0.0273-2.48-0.0116-0.812-0.0232-1.62-0.0352-2.46 0.0977-2.16 0.0977-2.16 1.1-4.16h7v2h5v2h3v-3c4.05-0.982 7.84-1.08 12-1v-2h3v-2z" fill="#FCFCFE"/>
<path transform="translate(1007,653)" d="m0 0h13v5c3.96-0.33 7.92-0.66 12-1v-4h2v5h13v-5h2c0.33 1.32 0.66 2.64 1 4 1.61 0.0735 1.61 0.0735 3.25 0.148 1.44 0.0751 2.87 0.151 4.31 0.227 0.704 0.0309 1.41 0.0619 2.13 0.0938 4.72 0.261 8.81 1.08 13.3 2.53v2h11c0.33 3.96 0.66 7.92 1 12 0.941 0.0606 1.88 0.121 2.85 0.184 1.87 0.126 1.87 0.126 3.77 0.254 1.23 0.0812 2.46 0.162 3.73 0.246 3.26 0.283 6.43 0.727 9.65 1.32-0.66 1.65-1.32 3.3-2 5h-4v6h6c-0.33 1.65-0.66 3.3-1 5h-4v6c0.976-0.0116 1.95-0.0232 2.96-0.0352 1.27-0.00902 2.54-0.018 3.86-0.0273 1.9-0.0174 1.9-0.0174 3.83-0.0352 3.36 0.0977 3.36 0.0977 6.36 1.1v2h6v-2c1.65-0.33 3.3-0.66 5-1 0.33 0.66 0.66 1.32 1 2 1.77 2.17 1.77 2.17 3.98 2.27 2.01-0.0142 4.02-0.134 6.02-0.266v3h-14v6h14v3h14v4h7v9h5c0.33 1.98 0.66 3.96 1 6h4v5h5v3h6v1h-5c-0.33 3.96-0.66 7.92-1 12 1.53-0.186 3.05-0.371 4.62-0.562 4-0.409 7.43-0.373 11.4 0.562v2h3v2h5c0.33 0.99 0.66 1.98 1 3h-6v6h6v5h-3v6c4.62-0.33 9.24-0.66 14-1v2h3v4c0.66 0.33 1.32 0.66 2 1-1 1-1 1-3.56 1.06-0.804-0.0206-1.61-0.0412-2.44-0.0625-0.33 2.64-0.66 5.28-1 8 0.666-0.0116 1.33-0.0232 2.02-0.0352 6.72-0.0658 13.3 0.311 20 1.04v2c0.897 0.186 0.897 0.186 1.81 0.375 2.19 0.625 2.19 0.625 5.19 2.62v2h-3v6h10v6c1.32 0.33 2.64 0.66 4 1 0.33 1.32 0.66 2.64 1 4 1.32 0.33 2.64 0.66 4 1 0.33 1.98 0.66 3.96 1 6h-3c-0.33 2.64-0.66 5.28-1 8 1.46 0.0735 1.46 0.0735 2.96 0.148 1.91 0.112 1.91 0.112 3.86 0.227 1.26 0.0696 2.53 0.139 3.83 0.211 3.36 0.414 3.36 0.414 6.36 2.41v2h2c-0.33 2.97-0.66 5.94-1 9h2v6h5v6c0.99 0.33 1.98 0.66 3 1-0.99 0.33-1.98 0.66-3 1v6h4c0.33 2.31 0.66 4.62 1 7 1.24-0.0412 2.47-0.0825 3.75-0.125 5.91 0.0522 5.91 0.0522 8.25 2.12 2.05 5.11 2.19 9.59 2 15 1.32 0.33 2.64 0.66 4 1-0.33 1.32-0.66 2.64-1 4h-3v7h10c0.33 0.66 0.66 1.32 1 2-0.33 0.66-0.66 1.32-1 2h-5c0.33 1.98 0.66 3.96 1 6 1.98 0.33 3.96 0.66 6 1v-3h3v7h5c0.33 2.97 0.66 5.94 1 9h4v10h-4v6h6v-6h7v3h3v2h-3v12h6c0.33 0.99 0.66 1.98 1 3 0.99 0.33 1.98 0.66 3 1 1.35 2.71 1.07 5.01 1 8h-5v17h7v-10h2c1.32 3.62 2 6.1 2 10h2v3h2c0.813 7.27 1.11 14.5 1.12 21.8 0.00677 1.2 0.00677 1.2 0.0137 2.42-0.0117 4.69-0.36 9.14-1.14 13.8h6v3h-5v11h2v5h3v4h6v-6h-3v-3h2v-5h3v6h3v5h2c0.33 3.3 0.66 6.6 1 10h5v5h-6v15h5c1.17 2.35 1.2 3.95 1.32 6.57 0.0628 1.34 0.0628 1.34 0.127 2.71 0.0393 0.937 0.0786 1.87 0.119 2.84 0.0648 1.42 0.0648 1.42 0.131 2.86 0.106 2.34 0.208 4.67 0.307 7.01h3v6h-3c-0.33 0.99-0.66 1.98-1 3v-2h-6v2h-3v2h-4c-1.47-5.23-2.23-9.58-2-15-0.949-0.124-1.9-0.247-2.88-0.375-3.12-0.625-3.12-0.625-5.12-2.62h4v-6h-5v-2h-7c-0.33 0.66-0.66 1.32-1 2-0.619-0.65-0.619-0.65-1.25-1.31-1.7-1.75-1.7-1.75-3.81-2.97-1.94-1.72-1.94-1.72-2.55-4.2-0.13-2.51-0.26-5.01-0.391-7.52-6.27-0.66-12.5-1.32-19-2v-2h-8v2h-3v-2h-5v-2h-4v-4h-6c-0.33 1.98-0.66 3.96-1 6h-2v-2c-9.33-0.241-18.1 0.226-27.3 1.66-3.76 0.35-6.95 0.0228-10.7-0.66v3h-3v-2h-6v2c-4.29 0.66-8.58 1.32-13 2-0.33-3.3-0.66-6.6-1-10-0.99-0.33-1.98-0.66-3-1-0.503-2.6-1-5.21-1.5-7.81-0.143-0.738-0.286-1.48-0.434-2.24-0.576-3.03-1.07-5.86-1.07-8.95-1.32-0.33-2.64-0.66-4-1-0.33-2.97-0.66-5.94-1-9h-3v-10h-4v-5c-1.05 0.186-2.1 0.371-3.19 0.562-3.38 0.388-5.58 0.32-8.81-0.562v-3c-1.07 0.0232-2.15 0.0464-3.25 0.0703-1.44 0.0188-2.87 0.037-4.31 0.0547-0.704 0.0168-1.41 0.0335-2.13 0.0508-4.82 0.0444-8.73-0.648-13.3-2.18v-4h-13v4h-2v-4h-7v2h-6v2h-15v3c-1.6 0.337-3.21 0.669-4.81 1-0.893 0.186-1.79 0.371-2.71 0.562-2.48 0.438-2.48 0.438-5.48 0.438-0.33-1.32-0.66-2.64-1-4-1.98-0.33-3.96-0.66-6-1 0.33 1.98 0.66 3.96 1 6 1.32 0.33 2.64 0.66 4 1v2h-4v2c-3.97 3.13-7.04 3.29-12 3v2h-3c-0.33-1.65-0.66-3.3-1-5h-6v14c-1.32 0.66-2.64 1.32-4 2v2c-4.29 0.33-8.58 0.66-13 1v-7h-6v3h-4v-2c-1.65-0.66-3.3-1.32-5-2v-3c-3.63 0.33-7.26 0.66-11 1v-4h-7c-0.66-3.3-1.32-6.6-2-10h-8v-2c-2.31-0.33-4.62-0.66-7-1-0.33-1.65-0.66-3.3-1-5h-5v-2c-0.865 0.167-1.73 0.335-2.62 0.508-3.26 0.475-6.15 0.524-9.43 0.371-1.11-0.0483-2.22-0.0967-3.36-0.146-1.14-0.0561-2.28-0.112-3.46-0.17-1.17-0.0522-2.33-0.104-3.53-0.158-2.86-0.129-5.73-0.264-8.59-0.404-0.33 1.32-0.66 2.64-1 4h-14c-0.33 2.64-0.66 5.28-1 8-0.33-1.32-0.66-2.64-1-4-2.64 0.33-5.28 0.66-8 1-0.33 1.98-0.66 3.96-1 6h6c-0.33 1.32-0.66 2.64-1 4h-4v3c-2.97 0.66-5.94 1.32-9 2v6h3v4h-3v4h-2c-0.0412 0.722-0.0825 1.44-0.125 2.19-1.27 4.08-3.33 5.54-6.88 7.81-3.38-0.188-3.38-0.188-6-1 0.66-0.33 1.32-0.66 2-1v-6h-2c-2.28-5.5-3.62-10.7-4.57-16.6-0.392-2.55-0.392-2.55-1.43-5.42-0.99-0.33-1.98-0.66-3-1v-4h-3c-0.33-0.66-0.66-1.32-1-2-0.99-0.33-1.98-0.66-3-1v-2h-4v-4h-14v-2h-13v2c-0.99-0.33-1.98-0.66-3-1-1.55-0.146-3.11-0.247-4.67-0.316-0.893-0.0419-1.79-0.0838-2.71-0.127-1.39-0.059-1.39-0.059-2.81-0.119-0.94-0.0432-1.88-0.0864-2.85-0.131-2.32-0.106-4.64-0.208-6.96-0.307v2h-10v2c-0.928 0.289-1.86 0.578-2.81 0.875-3.29 1.01-3.29 1.01-6.19 3.12-2.33 0.0791-4.67 0.088-7 0v2c-0.638 0.193-1.28 0.387-1.93 0.586l-2.5 0.789c-0.824 0.255-1.65 0.51-2.5 0.773-2.24 0.66-2.24 0.66-3.07 2.85-4.3 1.22-8.61 2.18-13 3v-5h-6v3c-3.63 0.33-7.26 0.66-11 1v11h-3v4c-0.736 0.266-1.47 0.531-2.23 0.805-1.46 0.53-1.46 0.53-2.96 1.07-0.963 0.348-1.93 0.696-2.92 1.05-1.43 0.53-1.43 0.53-2.89 1.07-0.904 0.312-1.81 0.624-2.74 0.945-2.58 0.963-2.58 0.963-4.26 4.05h-2v-3h-13v6h7c-0.66 1.32-1.32 2.64-2 4h-3c-0.33 0.99-0.66 1.98-1 3-1.33 0.667-2.67 1.33-4 2-0.33 0.99-0.66 1.98-1 3-5.23 1.21-9.77 0.756-15 0v4h-2v2h-11v8h-2c-0.268 0.619-0.536 1.24-0.812 1.88-1.19 2.12-1.19 2.12-4.19 4.12-2.69 0.125-2.69 0.125-5 0-0.124 0.908-0.247 1.82-0.375 2.75-0.963 5.01-0.963 5.01-2.62 7.25-2.62 0.75-2.62 0.75-5 1v-5h-6v6h5c-0.33 1.98-0.66 3.96-1 6h-2v2c-1.98 0.33-3.96 0.66-6 1v-4h-6v5h-2v4h-3v-5h-6v6h4c-0.33 1.65-0.66 3.3-1 5h-4v3c-0.626 0.277-1.25 0.554-1.9 0.84-0.817 0.362-1.63 0.724-2.48 1.1-0.812 0.36-1.62 0.719-2.46 1.09-1.4 0.63-2.79 1.29-4.16 1.97-2.67 0.134-5.32 0.0432-8 0-0.33 1.32-0.66 2.64-1 4-2.81 0.509-5.62 1.01-8.44 1.5-0.783 0.143-1.57 0.286-2.37 0.434-8.54 1.48-15.9 1.49-24.2-0.934v-3h-3v-2h-9v-3h-2v-6c-2.31 0.33-4.62 0.66-7 1-0.99-9.9-0.99-9.9-2-20h-4v-10h-2c-0.33-1.98-0.66-3.96-1-6 0.99-0.33 1.98-0.66 3-1v-8h-3c1.48-12.9 1.48-12.9 3-26h2c-0.0619-0.949-0.124-1.9-0.188-2.88l0.188-3.12c3.09-2.06 3.71-2.24 7.19-2.12 1.26 0.0412 2.52 0.0825 3.81 0.125v-8h-7l1-4h2c-0.0116-0.675-0.0232-1.35-0.0352-2.05-0.00902-0.892-0.018-1.78-0.0273-2.7l-0.0352-2.67c0.0977-2.58 0.0977-2.58 1.1-6.58 3.3 0.33 6.6 0.66 10 1v-8h-6c0.99-3.96 0.99-3.96 2-8h4v-7c-0.66-0.33-1.32-0.66-2-1 0.33-0.66 0.66-1.32 1-2h5v-6h-4v-6c3.35-2.03 5.87-2.22 9.75-2.12 0.985 0.018 1.97 0.0361 2.98 0.0547l2.27 0.0703v-6h-3v-2c-0.99-0.33-1.98-0.66-3-1 0.33-0.66 0.66-1.32 1-2h5v-14c1.65-0.66 3.3-1.32 5-2v-3h2c0.33-0.66 0.66-1.32 1-2v2c3.63-0.33 7.26-0.66 11-1v-7c-2.97-0.33-5.94-0.66-9-1 1-3 1-3 3.5-4.44 2.66-1.31 2.66-1.31 3.31-3.75 0.0619-0.598 0.124-1.2 0.188-1.81h2v-3h2v-5h2v-5c1.65-0.33 3.3-0.66 5-1 0.144-0.598 0.289-1.2 0.438-1.81 0.45-1.75 0.991-3.47 1.56-5.19 2.06-0.688 2.06-0.688 4-1v2h6v-2c1.65-0.33 3.3-0.66 5-1-0.126-1.43-0.126-1.43-0.254-2.89-0.102-1.25-0.204-2.51-0.309-3.8l-0.316-3.76c-0.106-3.11 0.107-5.56 0.879-8.55h4c0.33-1.32 0.66-2.64 1-4h4v-4h5v-3h3v-2c3-2 3-2 6-2 0.99-6.43 0.99-6.43 2-13 3.47-0.99 3.47-0.99 7-2v-2h3c0.217-1.42 0.217-1.42 0.438-2.88 0.562-3.12 0.562-3.12 1.56-5.12h3c0.66-1.32 1.32-2.64 2-4 1.98 0.33 3.96 0.66 6 1v2h-5v2h-3v2h-2v6h8v-2h2c0.33-2.31 0.66-4.62 1-7 1.13-0.309 2.27-0.619 3.44-0.938 3.35-0.692 3.35-0.692 4.56-2.06 3.66-0.136 6.51-0.165 10 1v2c0.595-0.00524 1.19-0.0105 1.8-0.0159 2.69-0.0208 5.38-0.0338 8.07-0.0466 1.41-0.0126 1.41-0.0126 2.84-0.0254 0.896-0.00322 1.79-0.00645 2.71-0.00977 0.827-0.00524 1.65-0.0105 2.51-0.0159 2.06 0.114 2.06 0.114 4.06 1.11v4h6v-4c3.97-0.92 7.76-1.19 11.8-1.32 1.94-0.0628 1.94-0.0628 3.92-0.127 1.35-0.0398 2.71-0.0795 4.06-0.119 1.37-0.0432 2.75-0.0869 4.12-0.131 3.35-0.106 6.71-0.208 10.1-0.307v-3c7.43-2.14 7.43-2.14 11-3v-5c4.62-2.22 7.77-3.38 13-3v-2h13v-8h9c0.33-2.97 0.66-5.94 1-9 1.32-0.33 2.64-0.66 4-1v4h14c-0.33-2.97-0.66-5.94-1-9h7v-5h9v-8h-6c3.75-3 3.75-3 6-3v-3c2.97-0.33 5.94-0.66 9-1v3h7c0.33-1.32 0.66-2.64 1-4h3v-6h-7l2-1c0.268-0.66 0.536-1.32 0.812-2 1.19-2 1.19-2 3.81-2.75 0.784-0.0825 1.57-0.165 2.38-0.25 0.33-1.65 0.66-3.3 1-5h3v-2c1.32-0.33 2.64-0.66 4-1v-3c8.41-0.495 8.41-0.495 17-1v-6h4v-6h5v-6h-5c0.33-1.65 0.66-3.3 1-5h2v-2h2v5h7v-4h3v-2h2c-0.33-3.3-0.66-6.6-1-10h4c0.33-1.32 0.66-2.64 1-4h9v-8h-6c1.94-2.56 1.94-2.56 5-5 3.11-0.145 5.97 0.334 9 1v-3h2v-5h3v-6h6c-0.33-3.3-0.66-6.6-1-10h-7v-3c2.97-0.66 5.94-1.32 9-2 0.66-2.31 1.32-4.62 2-7h-6v-10h2v3c0.949-0.165 1.9-0.33 2.88-0.5 4.7-0.685 9.39-0.586 14.1-0.5v-4z" fill="#FCFDFD"/>
<path transform="translate(952 637)" d="m0 0c4.58 3.82 8.03 7.75 8.87 13.8 0.885 17.2-13.2 32.7-24 44.8-1.68 1.85-3.37 3.68-5.07 5.51-1.87 2.02-3.66 4.08-5.43 6.18-8.18 9.41-17.3 18.2-26.8 26.2-1.11 0.97-2.21 1.94-3.32 2.91-19.2 16.9-39.6 31.1-61.7 44.1-1.13 0.663-2.25 1.33-3.41 2.01-38.8 21.7-38.8 21.7-55.6 20-3.92-1.82-5.54-3.31-7.94-6.88-1.53-4.49-0.885-7.3 1.04-11.6 2.49-3.36 5.45-4.78 9.15-6.5 0.714-0.345 1.43-0.69 2.16-1.05 4.54-2.16 9.15-4.08 13.8-5.89 14.3-5.57 27.9-12.8 40.8-21.1 0.859-0.526 1.72-1.05 2.6-1.59 14.8-9.14 28.5-19.7 41.4-31.4 0.824-0.747 0.824-0.747 1.66-1.51 2.55-2.32 5.09-4.65 7.62-7 2.47-2.27 4.99-4.48 7.53-6.68 3.47-3.06 6.52-6.31 9.48-9.86 1.28-1.47 2.64-2.88 4.02-4.26 3.09-3.11 5.95-6.37 8.8-9.7 0.525-0.603 1.05-1.21 1.59-1.83 0.509-0.593 1.02-1.19 1.54-1.8 0.455-0.529 0.91-1.06 1.38-1.6 1.65-2.15 3-4.43 4.36-6.77-9.74 2.46-18.4 5.75-27.4 10.2-1.18 0.58-2.36 1.16-3.58 1.76-8.42 4.16-16.8 8.38-25 13-0.672 0.377-1.34 0.755-2.04 1.14-22.3 12.6-44 26.2-65 40.9-0.846 0.586-1.69 1.17-2.56 1.78-4.55 3.17-9.04 6.4-13.5 9.74-2.79 2.09-5.63 4.1-8.47 6.12-8.15 5.81-15.9 11.9-23.5 18.4-1.79 1.46-3.58 2.92-5.38 4.38-18.8 15.4-18.8 15.4-36.2 32.3-1.43 1.32-1.43 1.32-3.43 1.32-0.227 0.557-0.454 1.11-0.688 1.69-1.69 2.97-3.84 4.96-6.31 7.31-1.67 1.67-3.33 3.33-5 5-1.1 1.09-2.2 2.18-3.3 3.27-6.12 6.07-12.2 12.1-17.7 18.7-1.24 1.44-1.24 1.44-2.51 2.91-6 6.98-11.7 14.1-17.3 21.5-1.23 1.61-2.48 3.2-3.73 4.8-6.28 7.99-12 16.3-17.5 24.8-0.616 0.946-1.23 1.89-1.87 2.87-4.89 7.6-9.57 15.3-14.1 23.1-0.401 0.684-0.802 1.37-1.22 2.07-15.7 27-27 55.8-34.8 85.9-0.393 1.48-0.786 2.95-1.18 4.43-1.01 3.84-1.94 7.7-2.82 11.6-0.171 0.745-0.343 1.49-0.519 2.26-7.93 35.1-11.2 75.9 8.52 108 10.6 16.5 24.4 29.2 43.8 33.6 12.4 2.25 24.3 0.166 36.2-3.6 0.689-0.214 1.38-0.429 2.09-0.649 10.9-3.43 20.9-8 30.9-13.4 0.862-0.454 1.72-0.908 2.61-1.38 5.99-3.23 11.7-6.92 17.4-10.6 0.949-0.607 1.9-1.21 2.88-1.84 11.4-7.39 21.7-15.9 31.9-24.7 5.36-4.63 10.9-8.94 16.6-13.2 2.12-1.61 4.22-3.26 6.31-4.91 13.1-10.2 27-19.2 41.1-28 1.42-0.884 2.83-1.78 4.24-2.67 4.32-2.75 8.7-5.22 13.3-7.48 0.683-0.338 1.37-0.675 2.07-1.02 48-23.5 48-23.5 65.6-21.2 4.6 1.8 6.84 4.59 9 9 0.751 4.73 0.736 8.59-1.5 12.9-5.8 4.93-13.1 7.18-20.2 9.56-18.6 6.41-36.7 14.2-52.2 26.6-0.847 0.634-1.69 1.27-2.57 1.92-16.6 12.7-28.3 30.6-31.4 51.5-0.396 5.96 1.48 9.9 5.31 14.4 6.43 5.36 13.6 4.86 21.6 4.19 14.7-3.1 24.9-12.1 33.2-24.3 7.25-11.6 13.5-23.9 19.4-36.2 2.29-4.38 5.28-6.08 9.76-7.96 4.45-0.703 5.92-0.176 9.56 2.44 2.48 2.08 3.91 3.93 5 7 0.188 5.33-0.121 10.8-1.52 15.9-0.908 3.93-0.709 7.95-0.732 12-0.0206 0.886-0.0412 1.77-0.0625 2.68-0.0313 5.25 0.354 8.91 3.31 13.4 5.98 5.53 11.5 5.35 19.3 5.21 9.64-0.545 17-7.04 23.3-14 7.33-8.83 12.4-18.9 17.4-29.2 0.966-2 1.95-3.99 2.94-5.97 8.34-17 15.3-34.8 20.1-53.1 4.29-16.3 4.29-16.3 9.79-20.1 3.86-2.01 6.82-2.68 11.2-1.88 5.29 3.71 8.25 8.03 11.6 13.5 3.09 5.06 5.98 9.5 10.4 13.5 0.715 0.733 1.43 1.47 2.17 2.22 4.84 3.04 10.3 2.96 15.9 3.47 6.31 0.71 11 2.21 15.9 6.31 5.07 6.37 5.94 12.7 5.33 20.7-1.18 8.29-4.07 16.4-6.46 24.4-6.13 20.4-6.13 20.4-3.86 41.1 0.915 2.15 0.915 2.15 3.98 2.79v2h2v2c8.84 4.58 16.9 6.55 26.7 3.83 5.76-2.1 11.6-4.82 16.5-8.52 1.77-1.31 1.77-1.31 3.77-1.31-1.27-3.46-2.75-6.31-4.88-9.31-9.45-13.9-13-29.5-10.6-46.2 4.17-21.3 16.5-41.1 34.5-53.5 13.8-8.91 25.2-14.5 42-12.9 7.49 1.82 12.2 7.69 16.3 13.9 6.56 11.8 6.18 27.4 2.75 40.1-5.96 17.2-15.5 34.4-26.5 48.8-1.69 2.01-1.69 2.01-1.5 4.18 4.85-0.555 8.71-2.08 13-4.31 0.679-0.346 1.36-0.692 2.06-1.05 7-3.6 13.9-7.41 20.8-11.2 7.95-4.36 16-8.49 24.2-12.4 0.619-0.302 1.24-0.605 1.88-0.917 22.7-11.1 52.7-25.1 78-18.2 7.09 2.55 14.1 6.38 19.1 12.1v2h2c1.71 2.07 3.27 4.12 4.81 6.31 0.448 0.636 0.896 1.27 1.36 1.93 4.95 7.19 9.85 14.7 9.33 23.7-0.898 3.61-2.83 5.47-5.5 8.01-3.73 1.86-7.93 1.41-12 1-5.87-2.37-7.69-6.74-10.4-12.1-4.08-7.52-9.54-14.5-17.6-17.9-6.8-0.845-13.1 0.419-19.6 2.38-1.34 0.395-1.34 0.395-2.7 0.798-17.5 5.36-34.1 12.6-50.2 21.4-5.07 2.75-10.2 5.38-15.3 8.03-6.23 3.22-12.4 6.46-18.6 9.88-14 7.76-28.8 12.4-44.9 9.02-3.49-0.701-5.76-1.01-9.01 0.596-2.41 1.69-4.66 3.49-6.92 5.38-11.1 8.73-21.7 14.8-35.8 17.5-0.831 0.183-1.66 0.366-2.52 0.555-14.2 2.56-27.5-2.56-39.2-10.4-10.4-7.79-17.1-18.7-20.3-31.2-2.4-20.4 5.61-42.8 12-62-1.25-0.255-1.25-0.255-2.53-0.516-10.7-2.31-18.5-5.47-27.3-12-2.18-1.65-2.18-1.65-5.16-2.49-0.0915 0.799-0.183 1.6-0.277 2.42-0.915 4.53-2.53 8.56-4.29 12.8-0.359 0.88-0.717 1.76-1.09 2.67-1.11 2.7-2.23 5.39-3.35 8.08-0.324 0.781-0.648 1.56-0.982 2.37-5.17 12.4-11.4 24-18 35.6-0.536 0.962-0.536 0.962-1.08 1.94-4.78 8.53-10.8 17.3-17.9 24.1h-2c-0.33 0.99-0.66 1.98-1 3-15 11.1-29.4 14.2-47.7 12.8-11.2-1.65-21.2-8.21-28.3-16.8-0.66-0.99-1.32-1.98-2-3-0.99-0.33-1.98-0.66-3-1-0.217 0.54-0.433 1.08-0.656 1.64-8.27 14.5-24.5 22.5-39.7 27.5-13.9 3.47-29.5 3.15-42-4.25-7.05-4.84-13.1-9.99-16.7-17.8-0.369-0.668-0.737-1.34-1.12-2.02-5.42-11-3.33-25.2-1.88-37-4.97 1.52-8.06 4.46-11.8 7.88-11.3 10-23.4 19.1-36.2 27.1-1.05 0.665-1.05 0.665-2.12 1.34-31.9 20-69.4 37.7-108 29.7-13.2-3.69-25.6-10-36-19v-2c-0.55-0.218-1.1-0.436-1.67-0.66-3.09-1.77-5.28-4.16-7.64-6.78-0.485-0.534-0.97-1.07-1.47-1.62-4.39-4.95-7.93-10.2-11.2-15.9-0.499-0.837-0.998-1.67-1.51-2.54-7.12-12.4-12.1-25.4-14.5-39.5-0.166-0.84-0.333-1.68-0.504-2.54-1.56-8.31-1.9-16.5-1.87-24.9 5.44e-4 -0.713 0.00109-1.43 0.00165-2.16 0.0832-24 4.42-47.2 10.4-70.4 0.207-0.82 0.415-1.64 0.628-2.48 1.33-5.21 2.8-10.4 4.37-15.5 0.265-0.872 0.529-1.74 0.802-2.64 11.2-36.4 27.9-72.9 50.4-104 1.48-2.06 2.92-4.13 4.34-6.23 5.13-7.57 10.4-15 16-22.2 2.04-2.61 4.05-5.25 6.05-7.9 8.43-11.1 17.8-21.5 27.2-31.8 2.57-2.82 5.07-5.69 7.55-8.58 2.14-2.37 4.4-4.6 6.67-6.85 1.24-1.25 2.47-2.49 3.71-3.74 1.37-1.38 2.74-2.76 4.11-4.13 0.674-0.682 1.35-1.36 2.04-2.07 3.95-3.96 7.99-7.74 12.2-11.4 2.99-2.6 5.85-5.33 8.73-8.05 5.86-5.48 11.9-10.6 18.2-15.6 1.26-1.03 2.52-2.06 3.78-3.09 7.74-6.34 15.5-12.6 23.5-18.6 1.19-0.901 2.38-1.8 3.56-2.71 9.84-7.51 19.9-14.7 30.1-21.6 0.719-0.485 1.44-0.969 2.18-1.47 5.26-3.54 10.5-7.04 15.8-10.5 0.718-0.475 1.44-0.949 2.18-1.44 9.73-6.42 19.6-12.5 29.7-18.3 2.11-1.23 4.2-2.48 6.3-3.73 82-49 82-49 104-36.1z" fill="#000100"/>
<path transform="translate(627,134)" d="m0 0c3.74 2.53 5.78 4.81 7.69 8.88 0.756 1.59 0.756 1.59 1.53 3.21 1.36 2.97 2.7 5.95 4.04 8.93 0.832 1.85 1.66 3.7 2.5 5.55 0.425 0.947 0.851 1.89 1.29 2.87 2.85 6.28 5.89 12.4 9.15 18.5 12.7 23.8 18.9 44.6 15.8 72.1h4c0.255-0.699 0.51-1.4 0.773-2.12 2.73-6.42 6.63-14.4 13.3-17.3 4.77-0.682 6.87-0.115 10.9 2.44 2.9 3.28 3.61 6.41 3.39 10.8-4.55 25.5-39.2 55.3-58.4 70.2-0.935 0.728-1.87 1.46-2.83 2.21-13.1 9.99-26.9 18.7-41.2 26.8-0.672 0.38-1.34 0.76-2.04 1.15-16.8 9.42-34.6 17.1-52.9 23.2-2.17 0.722-4.33 1.46-6.49 2.21-45.8 15.7-45.8 15.7-54.8 11.5-0.839-0.669-0.839-0.669-1.7-1.35-0.862-0.661-0.862-0.661-1.74-1.34-2.31-2.16-2.39-3.38-2.63-6.6 0.273-4.03 0.677-5.62 3.25-8.69 5.13-3.37 9.5-4.78 15.5-5.81 7.85-1.49 15.4-3.52 23.1-5.88 1.01-0.31 2.01-0.62 3.05-0.939 4.79-1.44 4.79-1.44 9.39-3.37-2.32-1.16-3.9-1.21-6.49-1.36-24.3-1.6-52.9-5.7-70.4-24.6-3.05-4.2-4-8.25-3.69-13.4 1.49-7.23 5.43-12.2 11.5-16.3 23.1-13.3 48.1-15.9 74.1-12.2-0.349-1.22-0.699-2.44-1.06-3.69-0.46-1.62-0.919-3.25-1.38-4.87-0.23-0.8-0.46-1.6-0.697-2.42-6.5-23.1-2.17-46.4 9.38-67.1 6.82-11.9 15.3-22 24.8-31.9 1.09-1.17 1.09-1.17 2.21-2.37 11.9-12.4 39.8-38.4 57.8-36.6z" fill="#000100"/>
<path transform="translate(884,539)" d="m0 0c1.9 0.215 1.9 0.215 3.84 0.434 19.6 2.22 38.9 5.51 58.2 9.57 1.04 0.218 2.08 0.436 3.15 0.661 12.6 2.67 25 5.91 37.3 9.58 2.54 0.754 5.08 1.49 7.62 2.23 11.8 3.44 23.4 7.33 34.9 11.5 0.81 0.291 1.62 0.581 2.45 0.881 58.2 21 113 51.7 163 89.1 0.536 0.407 1.07 0.813 1.62 1.23 7.59 5.77 15.1 11.7 22.4 17.8 0.5 0.413 0.999 0.827 1.51 1.25 7.15 5.92 14.1 12 20.8 18.4 2.3 2.17 4.51 4.21 7.07 6.08 0.527 0.413 1.05 0.825 1.6 1.25v2c0.803 0.315 0.803 0.315 1.62 0.636 3.3 1.89 5.78 4.5 8.43 7.18 0.866 0.866 0.866 0.866 1.75 1.75 1.22 1.22 2.44 2.45 3.65 3.68 1.84 1.86 3.68 3.7 5.53 5.55 6.69 6.71 13.3 13.4 19.1 20.9 1.85 2.37 1.85 2.37 4.12 4.5 3.26 3.33 6.04 6.92 8.88 10.6 1.85 2.4 1.85 2.4 4.87 4.21 1.01 1.66 2.01 3.33 3 5 1.95 2.54 4.01 4.98 6.06 7.44 6 7.29 11.5 14.8 16.9 22.6 0.612 0.859 1.22 1.72 1.86 2.6 4.53 6.37 8.77 12.9 13 19.5 0.789 1.24 1.58 2.49 2.38 3.73 14.8 23.2 27.2 47.2 38.5 72.3 0.834 1.83 1.67 3.66 2.52 5.49 5.93 12.8 10.8 25.9 15.2 39.3 0.236 0.712 0.472 1.42 0.715 2.16 6.3 19 11.9 38.2 16.3 57.7 0.432 1.89 0.881 3.77 1.33 5.65 3.54 14.7 6.15 29.7 8.29 44.7 0.158 1.07 0.317 2.15 0.48 3.26 3.16 23 3.7 46 3.59 69.2-0.011 2.83-0.0105 5.66-0.00986 8.48-2.73e-4 2.76-0.00577 5.53-0.013 8.29-0.00464 1.92-0.00644 3.84-0.00816 5.76-0.0348 6.39-0.313 12.6-1.16 18.9-0.99-0.33-1.98-0.66-3-1-0.0641-0.547-0.128-1.09-0.194-1.66-3.04-25.9-6.09-51.7-10.8-77.3-0.38-2.14-0.76-4.29-1.14-6.43-5.03-27.7-12.1-54.8-20.9-81.6-0.286-0.882-0.572-1.76-0.867-2.67-1.43-4.41-2.9-8.8-4.4-13.2-0.777-2.27-1.54-4.55-2.3-6.83-11.5-34-26.3-68.9-44.9-99.7-1.63-2.8-3.06-5.66-4.48-8.58-2.61-5.31-5.58-10.3-8.72-15.3-2.34-3.73-4.58-7.51-6.83-11.3-4.01-6.76-8.01-13.5-12.6-19.8-2.05-2.88-3.99-5.82-5.93-8.78-12.4-18.8-26-36.8-40.6-54-2.36-2.82-4.66-5.69-6.96-8.56-3.65-4.5-7.58-8.56-11.8-12.5-1.65-1.78-1.65-1.78-1.65-3.78h-2c-1.36-1.38-1.36-1.38-2.97-3.34-4.55-5.35-9.49-10.3-14.5-15.2-0.903-0.907-1.81-1.81-2.74-2.75-4.56-4.55-9.17-8.97-14.1-13.2-2.53-2.18-4.95-4.48-7.38-6.77-5.93-5.49-12.2-10.5-18.6-15.4-2.32-1.8-4.62-3.62-6.93-5.45-12.3-9.73-24.8-19.1-37.9-27.7-2.03-1.32-4.05-2.65-6.07-3.98-9.78-6.42-19.7-12.5-29.9-18.3-1.02-0.59-2.03-1.18-3.08-1.79-8.79-5.08-17.7-9.88-26.7-14.5-0.713-0.368-1.43-0.736-2.16-1.11-12.2-6.28-24.6-12.1-37.2-17.4-2.67-1.12-5.32-2.27-7.97-3.43-17.2-7.38-35-13-52.8-18.8-0.688-0.221-1.38-0.443-2.08-0.671-9.55-3.07-19.1-5.84-28.9-8.33-0.664-0.171-1.33-0.341-2.01-0.517-12.9-3.31-25.9-6.16-39-8.48-1.16-0.207-2.33-0.414-3.53-0.628-31.5-5.5-63.5-9.04-95.5-9.37-0.717-0.00753-1.43-0.0151-2.17-0.0228-35-0.397-35-0.397-69.8 1.94-2.01 0.0859-2.01 0.0859-4.01-0.914v-2c51.3-8.02 104-8.18 156-2z" fill="#000100"/>
<path transform="translate(665,384)" d="m0 0c4.26 4.26 5.69 10.8 7.31 16.5 0.209 0.729 0.419 1.46 0.635 2.21 0.692 2.43 1.37 4.86 2.05 7.29 0.242 0.846 0.483 1.69 0.732 2.56 23.5 83 14.4 167-26.9 285-0.415 1.11-0.415 1.11-0.838 2.25-9.72 26.1-19.5 52.2-31.3 77.4-1.44 3.07-2.85 6.16-4.25 9.25-8.26 18.2-8.26 18.2-12.4 26.2-13.9 27.3-25.3 56.2-35 85.2-1.01 2.97-2.05 5.93-3.09 8.88-6.11 17.4-11.8 34.6-16.3 52.5-0.568 2.22-1.17 4.43-1.79 6.64-14.8 52.5-13.8 107 5.13 158 0.243 0.663 0.485 1.33 0.735 2.01 2.73 7.46 5.55 14.9 8.7 22.2 0.566 1.82 0.566 1.82-0.434 3.82-26.7-29.6-40.9-81.9-42-121-0.0307-1.08-0.0307-1.08-0.062-2.19-1.04-43.1 9.19-86.4 22.3-127 0.922-2.94 1.79-5.9 2.66-8.86 9.5-32 21.9-62.5 36.1-92.7 0.637-1.35 1.27-2.71 1.91-4.06 0.955-2.03 1.91-4.06 2.87-6.08 0.949-2.02 1.9-4.03 2.85-6.05 0.313-0.664 0.625-1.33 0.947-2.01 15.7-33.3 29.3-67.5 42.7-102 1.97-5.06 3.98-10.1 6-15.1 6.86-17.1 13.2-34.3 18.8-51.9 0.322-1 0.644-2 0.976-3.04 4.44-13.8 8.06-27.7 11-42 0.192-0.916 0.384-1.83 0.583-2.77 0.563-2.7 1.12-5.4 1.67-8.1 0.163-0.802 0.327-1.6 0.495-2.43 8.31-41.9 2.52-86.4-10.2-127-0.563-2.02-0.563-2.02-0.563-4.02 1.81 0.199 1.81 0.199 4 1 1.56 2.14 1.56 2.14 3 4.81 1.98 3.64 3.95 6.37 7 9.19-0.908-14.4-2.74-28.4-5.41-42.6-0.328-1.77-0.328-1.77-0.663-3.58-0.202-1.05-0.404-2.11-0.612-3.19-0.314-2.64-0.314-2.64 0.686-5.64z" fill="#000100"/>
<path transform="translate(727,578)" d="m0 0h7v3h6c0.33-0.99 0.66-1.98 1-3v2c2.97 0.33 5.94 0.66 9 1v5h6v-3h17v6h6v-6h15v-2c4.29-0.33 8.58-0.66 13-1v-2h4v3h2v2h14v-2h7v6h6v-6h6v5h3v5h27v2h6c0.33-0.66 0.66-1.32 1-2v2c2.64 0.33 5.28 0.66 8 1v2c0.99 0.33 1.98 0.66 3 1v4h5v4h-4v-2h-6v2c-2.76 1.38-4.99 1.06-8.06 1-1.98-0.0376-3.96-0.0466-5.94 0-0.33 0.33-0.66 0.66-1 1-1.49 0.0867-2.98 0.107-4.47 0.0977-0.899-0.00322-1.8-0.00645-2.72-0.00977-0.946-0.00838-1.89-0.0168-2.87-0.0254-1.42-0.00677-1.42-0.00677-2.88-0.0137-2.35-0.0118-4.71-0.0283-7.06-0.0488v6h12c-0.33 2.64-0.66 5.28-1 8-4.95 0.33-9.9 0.66-15 1v2h-2c-0.33 0.99-0.66 1.98-1 3h-7v5c-3.62 1.32-6.1 2-10 2v2c-2.97 0.495-2.97 0.495-6 1v3c-1.07 0.29-1.07 0.29-2.15 0.586-1.38 0.391-1.38 0.391-2.79 0.789-0.917 0.255-1.83 0.51-2.78 0.773-2.45 0.618-2.45 0.618-3.29 2.85-1.98 0.727-3.98 1.4-6 2v-5h-7v4h-5c0.0838 0.58 0.168 1.16 0.254 1.76 0.153 1.17 0.153 1.17 0.309 2.37l0.316 2.32c0.121 2.55 0.121 2.55-0.879 8.55h-14l-1 4c-0.33 0.66-0.66 1.32-1 2h-3v-5h-7v6h3v2h-2c-0.66 1.98-1.32 3.96-2 6-0.66-1.32-1.32-2.64-2-4h-6c0.0412 1.11 0.0825 2.23 0.125 3.38-0.125 3.62-0.125 3.62-2.12 5.62h-3l-1 4c-2.64 0.33-5.28 0.66-8 1v-4h-6v6c1.98 0.495 1.98 0.495 4 1-1 1-1 1-4.06 1.06-0.969-0.0206-1.94-0.0412-2.94-0.0625v-4h-8c0.165 0.99 0.33 1.98 0.5 3 0.585 4.03 0.571 7.93 0.5 12-0.782 0.205-1.56 0.41-2.37 0.621-1.01 0.269-2.02 0.539-3.07 0.816-1.01 0.267-2.02 0.534-3.06 0.809-2.42 0.514-2.42 0.514-3.5 1.75-2.67 0.141-5.32 0.0425-8 0v2h-2v4h-2v6h-2v3h-2v-3h-6v6h3v2c-3.3 0.33-6.6 0.66-10 1v6c-2.97-0.33-5.94-0.66-9-1l-1 4h-2c-0.965-7.22-1.12-14.3-1.06-21.6 0.00451-1.1 0.00902-2.21 0.0137-3.35 0.0117-2.7 0.0281-5.39 0.0488-8.09 1.98-0.495 1.98-0.495 4-1v2h6v-11h-9v-2h4v-2h3v-16h3c0.049-0.895 0.098-1.79 0.148-2.71 0.448-7.25 1.17-14.2 2.85-21.3h2c0.33-1.65 0.66-3.3 1-5 1.49-0.495 1.49-0.495 3-1v4h6v-9h-4v-7h2c0.0909-1.38 0.0909-1.38 0.184-2.78 0.44-6.44 0.922-12.8 1.82-19.2 1.32-0.33 2.64-0.66 4-1v-5h2c-0.143-0.888-0.143-0.888-0.289-1.79-0.652-4.65-1.06-7.93 1.29-12.2h1v5h7c-0.495-4.46-0.495-4.46-1-9h6v-2h4c0.33-1.32 0.66-2.64 1-4z" fill="#FDFDFD"/>
<path transform="translate(630 561)" d="m0 0c1.13 0.0206 2.27 0.0412 3.44 0.0625-2.93 2.93-6.62 3.6-10.5 4.81-22.7 7.36-45.1 16.2-66.8 26-2.76 1.24-5.53 2.47-8.29 3.69-12.1 5.36-23.8 11.1-35.4 17.5-0.818 0.451-1.64 0.901-2.48 1.37-33.5 18.6-65.3 39.9-94.8 64.2-2.33 1.91-4.7 3.78-7.07 5.64-4.23 3.37-8.25 6.95-12.2 10.6-4.1 3.73-8.28 7.35-12.5 11-0.69 0.598-1.38 1.2-2.09 1.81-0.612 0.529-1.22 1.06-1.86 1.6-1.84 1.67-3.61 3.4-5.36 5.17-2.06 2.07-4.14 4.13-6.21 6.19-1.75 1.74-3.51 3.49-5.26 5.23-0.873 0.864-1.75 1.73-2.64 2.62-4.47 4.45-8.8 8.96-12.9 13.7-2.42 2.81-4.97 5.49-7.51 8.2-4.26 4.58-8.31 9.26-12.2 14.2-1.97 2.51-3.99 4.97-6.03 7.43-1.63 2-3.25 4-4.88 6-0.497 0.613-0.995 1.23-1.51 1.86-10.4 12.8-19.5 26.3-28.5 40.1-0.565 0.874-1.13 1.75-1.71 2.65-22.8 35.4-42 72.6-58.3 111-0.731 1.73-0.731 1.73-1.48 3.49-5.97 14.1-11.7 28.2-16.6 42.7-1.1 3.23-2.23 6.45-3.37 9.67-4.86 13.8-9.29 27.6-12.9 41.7-0.575 2.18-1.19 4.35-1.82 6.52-12.2 41.7-18.6 84.9-24.8 128-0.99-0.33-1.98-0.66-3-1-25.5-76.6 17.6-199 50-267 0.407-0.858 0.814-1.72 1.23-2.6 6.35-13.3 13.6-26 21.2-38.7 1.39-2.33 2.77-4.67 4.14-7.01 8.52-14.5 18.1-28.1 28-41.7 1.22-1.67 2.42-3.35 3.62-5.04 7.76-10.9 16.3-21.1 24.8-31.4 1.31-1.6 2.59-3.22 3.86-4.86 4.86-6.28 10.2-12 15.7-17.8 2.98-3.13 5.9-6.28 8.71-9.57 4.7-5.42 9.79-10.5 14.9-15.5 1.71-1.71 3.4-3.42 5.1-5.14 5.92-5.95 11.9-11.5 18.5-16.8 2.92-2.34 5.63-4.82 8.36-7.39 5.47-5.09 11.2-9.85 17-14.5 0.701-0.558 1.4-1.12 2.12-1.69 11.7-9.17 23.6-18 35.9-26.3 0.581-0.394 1.16-0.788 1.76-1.19 15.5-10.5 31.4-20.2 47.8-29.4 2.27-1.28 4.53-2.58 6.78-3.89 7.89-4.54 15.9-8.62 24.2-12.4 3.72-1.71 7.36-3.55 11-5.41 7.9-3.99 16-7.49 24.1-10.9 0.766-0.32 1.53-0.641 2.32-0.971 16.8-6.98 33.9-12.8 51.2-18.2 1.75-0.551 3.5-1.11 5.24-1.67 2.77-0.884 5.54-1.75 8.32-2.61 0.741-0.232 1.48-0.464 2.24-0.703 4.43-1.32 8.69-2 13.3-2.37 3.12-0.413 2.42-1.23 6.34-1.3z" fill="#000100"/>
<path transform="translate(619,163)" d="m0 0c0.534 1.15 1.07 2.3 1.62 3.49 4.03 8.63 8.17 17.2 12.6 25.6 0.423 0.798 0.847 1.6 1.28 2.42 0.802 1.51 1.6 3.02 2.41 4.53 9.64 18.1 13.7 37.6 8.1 57.9-5.75 17.4-14.2 32.1-26 46.1-0.508 0.624-1.02 1.25-1.54 1.89-2.77 2.1-5.68 1.21-8.96 0.816-14.4-2.91-28-8.48-39.5-17.7-1.03-0.742-2.06-1.49-3.12-2.25-8.58-8.21-13.3-20.9-14.1-32.7-0.382-25.7 14-47.2 31.2-65.1 2.58-2.45 5.27-4.73 8-7 0.906-0.782 1.81-1.56 2.75-2.37 18.3-15.6 18.3-15.6 25.3-15.6z" fill="#FCFDFE"/>
<path transform="translate(1173,1062)" d="m0 0c3.61 4.35 3.5 8.35 3.34 13.8-1.49 14.2-10.1 28.8-18.3 40.2-0.531 0.784-1.06 1.57-1.61 2.38-4.39 6.44-8.92 13.1-14.4 18.6h-3v-2h-2c-6.85-8.4-7.91-18.5-7-29 2.13-13.7 11.4-26.9 22.2-35.1 14.3-10 14.3-10 20.8-8.88z" fill="#FCFDFE"/>
<path transform="translate(551,311)" d="m0 0c0.837 0.32 1.67 0.639 2.54 0.969 0.813 0.32 1.63 0.639 2.46 0.969 1.08 0.416 1.08 0.416 2.19 0.84 2.46 1.66 2.94 3.45 3.81 6.22-2.37 0.818-4.75 1.63-7.12 2.44-0.665 0.23-1.33 0.46-2.02 0.697-0.657 0.222-1.31 0.445-1.99 0.674-0.597 0.204-1.19 0.408-1.81 0.619-16.3 4.54-39.2 3.36-55.1-2.43-1.22-0.42-2.44-0.84-3.7-1.27-4.91-1.78-9.24-3.39-13.3-6.73 14.4-17.8 56.3-11.1 74-3z" fill="#FCFDFE"/>
<path transform="translate(986,622)" d="m0 0c3.1-0.029 6.21-0.0468 9.31-0.0625 0.881-0.00838 1.76-0.0168 2.67-0.0254 0.848-0.00322 1.7-0.00645 2.57-0.00977 1.17-0.00786 1.17-0.00786 2.36-0.0159 2.08 0.114 2.08 0.114 5.08 1.11v2h-3v6h3v2c4.4 1.28 8.1 2.11 12.7 1.94 3.9-0.081 6.35 0.287 9.31 3.06 0.312 2.69 0.312 2.69 0 5h2v2h-12v2c-2.31 0.0269-4.62 0.0463-6.94 0.0625-1.29 0.0116-2.58 0.0232-3.9 0.0352-3.16-0.0977-3.16-0.0977-4.16-1.1-1.51-0.232-3.04-0.412-4.56-0.562-0.826-0.0838-1.65-0.168-2.5-0.254-0.957-0.0909-0.957-0.0909-1.93-0.184v-5h-5v-3h-10v-4h7v-6h-2v-5z" fill="#FDFDFD"/>
<path transform="translate(1363,1154)" d="m0 0c3.34 2.82 6.74 6.49 7.2 11 0.0973 4.83 0.0688 8.18-3.2 12-3.84 3.38-7.64 3.51-12.6 3.36-4.51-0.658-7.18-3.05-10.2-6.23-1.92-3.44-2.72-6.22-1.63-10.1 2.03-4.76 4.68-7.74 9.23-10.2 3.96-1.42 7.31-1.37 11.2 0.207z" fill="#000100"/>
<path transform="translate(472 1e3)" d="m0 0c1.68 0.286 3.34 0.618 5 1 0.33 2.97 0.66 5.94 1 9-1.32 0.33-2.64 0.66-4 1v10h-3c-0.33-2.31-0.66-4.62-1-7h2c-0.0838-0.927-0.168-1.85-0.254-2.81-0.102-1.2-0.204-2.4-0.309-3.63-0.157-1.79-0.157-1.79-0.316-3.62-0.04-0.971-0.0799-1.94-0.121-2.94 0.33-0.33 0.66-0.66 1-1z" fill="#FDFDFD"/>
<path transform="translate(517,349)" d="m0 0c1.92-0.0542 3.83-0.0929 5.75-0.125 1.6-0.0348 1.6-0.0348 3.23-0.0703 2.94 0.19 4.54 0.669 7.02 2.2-7.37 3.73-12.9 4.42-21 3 2.62-1.75 4.04-2.39 7-3-0.66-0.66-1.32-1.32-2-2z" fill="#FDFDFD"/>
<path transform="translate(996,625)" d="m0 0h8v6h-2v2h-7c-0.125-5.75-0.125-5.75 1-8z" fill="#FCFDFF"/>
<path transform="translate(765,509)" d="m0 0h26v1h-6v2h-22c0.66-0.33 1.32-0.66 2-1v-2z" fill="#FDFDFD"/>
<path transform="translate(808,511)" d="m0 0h22c-0.99 0.495-0.99 0.495-2 1v2h-17v-2c-0.99-0.33-1.98-0.66-3-1z" fill="#FDFDFD"/>
<path transform="translate(471,988)" d="m0 0c1.67-0.0427 3.33-0.0406 5 0 0.33 0.33 0.66 0.66 1 1-0.287 2.34-0.619 4.67-1 7-2.97-0.33-5.94-0.66-9-1 1.32-0.33 2.64-0.66 4-1v-6z" fill="#FDFDFD"/>
<path transform="translate(674,244)" d="m0 0c0.66 0.66 1.32 1.32 2 2-2.71 8.63-2.71 8.63-7 11-1.23-6.4-1.23-6.4-0.0625-9.44 0.351-0.516 0.701-1.03 1.06-1.56 0.33 0.99 0.66 1.98 1 3 0.99-1.65 1.98-3.3 3-5z" fill="#FDFDFD"/>
<path transform="translate(1173,1009)" d="m0 0c1.46 0.141 2.92 0.288 4.38 0.438l2.46 0.246c2.16 0.316 2.16 0.316 4.16 1.32v2h8v1c-6.71 0.198-12.7 0.308-19-2v-3z" fill="#FDFDFD"/>
<path transform="translate(667,427)" d="m0 0c4.13 4.26 4.61 7.29 5 13-4.72-2.42-4.72-2.42-5.88-4.81-0.162-2.84 0.306-5.41 0.875-8.19z" fill="#FDFDFD"/>
<path transform="translate(1185,761)" d="m0 0h6v6h-6v-6z" fill="#FCFDFF"/>
<path transform="translate(716,686)" d="m0 0h6v6h-6v-6z" fill="#FCFDFF"/>
<path transform="translate(143,81)" d="m0 0h6v6h-6v-6z" fill="#FCFDFF"/>
<path transform="translate(497,565)" d="m0 0h5v2c0.66 0.33 1.32 0.66 2 1-0.66 0.66-1.32 1.32-2 2v-2h-6v2c-1.65 0.33-3.3 0.66-5 1l-1-2c2.36-2.36 3.78-2.49 7-3v-1z" fill="#FDFDFD"/>
<path transform="translate(1174,1138)" d="m0 0h3v3c0.99-0.33 1.98-0.66 3-1 0.33 0.66 0.66 1.32 1 2-3.78 1.84-5.95 2.16-10 1 1.88-3.88 1.88-3.88 3-5z" fill="#FDFDFD"/>
<path transform="translate(881,607)" d="m0 0h7c0.33 0.99 0.66 1.98 1 3-2.64 0.33-5.28 0.66-8 1v-4z" fill="#FDFDFD"/>
<path transform="translate(893 606)" d="m0 0c2.02 0.0651 4.04 0.13 6.05 0.195v4h-4v-2h-6c2-2 2-2 3.95-2.2z" fill="#FDFDFD"/>
</svg>
